# xmcd CD database file
#
# Track frame offsets:
#	150
#	9427
#	20857
#	30500
#	38477
#	48710
#	63135
#	76175
#	88300
#	97272
#	108247
#	118092
#	127997
#	138860
#	148972
#	158320
#	168780
#	175717
#	183800
#	196292
#	208577
#	218370
#	228827
#	237712
#	246607
#	255432
#	265605
#	274837
#	285012
#	294890
#
# Disc length: 4062 seconds
#
# Revision: 0
# Processed by: cddbd v1.4PL0 Copyright (c) Steve Scherf et al.
# Submitted via: CDex 1.40Release
#
DISCID=940fdc1e
DTITLE=Merle Kilgore - Teenager's Holiday
DYEAR=1900
DGENRE=Country
TTITLE0=Ride Jesse Ride
TTITLE1=Hang Doll
TTITLE2=Everybody's Needs A Little Lovin'
TTITLE3=Ernie
TTITLE4=Start All Over Again
TTITLE5=Tom Dooley Jr.
TTITLE6=More And More
TTITLE7=It Can't Rain All The Time
TTITLE8=Seein' Double, Feelin' Single
TTITLE9=What Makes Me Love You
TTITLE10=Funny Feelin'
TTITLE11=Now That You Are Leavin'
TTITLE12=That's When My Blues Began
TTITLE13=Teenager's Holiday
TTITLE14=Please, Please, Please
TTITLE15=I Feel Guilty
TTITLE16=Trying To Find (Someone Like You)
TTITLE17=Goodbye
TTITLE18=42 In Chicago
TTITLE19=Wicked City
TTITLE20=I'll Take Ginger And Run Away
TTITLE21=A Girl Named Liz
TTITLE22=Ain't Nothin' But A Man
TTITLE23=Something's Goin' On That I Can't See
TTITLE24=There's No Food In The House
TTITLE25=Lover's Hell
TTITLE26=Back Street Affair
TTITLE27=Trouble At The Tower
TTITLE28=The Love Bug
TTITLE29=I'll Shake Your Hand
EXTD=ID3G: 2
EXTT0=
EXTT1=
EXTT2=
EXTT3=
EXTT4=
EXTT5=
EXTT6=
EXTT7=
EXTT8=
EXTT9=
EXTT10=
EXTT11=
EXTT12=
EXTT13=
EXTT14=
EXTT15=
EXTT16=
EXTT17=
EXTT18=
EXTT19=
EXTT20=
EXTT21=
EXTT22=
EXTT23=
EXTT24=
EXTT25=
EXTT26=
EXTT27=
EXTT28=
EXTT29=
PLAYORDER=
